#!OML:ASF E:/inclinewalkrobotboard/Project1/Captureday1/Session1/subject1.ASF
:FULLY-SPECIFIED
:DEGREES
51
root 0 0 0 1.107989760110321 -3.740167408022068 1.8028360734487634
lowerback 11.995298481864017 0.8620100971486926 -0.07693701836485109
upperback -4.182546984358001 1.0910351600556383 -0.5396328029850909
thorax -11.297385397740747 0.500389605012848 -0.7746337082798567
lowerneck -5.922188460669535 1.4701439368311875 4.52060290659016
upperneck 18.040970876836667 2.9154915494019864 -8.26647158071519
head 6.615876501544664 1.0617317672130144 -3.1943465022609034
rclavicle -1.2338885295648782E-15 3.9911748304978677E-16
rhumerus 19.641344162060648 14.047368682175975 -47.80817059494968
rradius 72.0705534831645
rwrist 27.218715118948328
rhand -34.88333067330561 -57.52890071178257
rfingers 7.125020000000043
rthumb -8.02483383685624 -87.30845344637734
lclavicle 1.0735450273081474E-15 -2.7157106583004015E-15
lhumerus 20.599413602500977 -12.313562547565114 45.61704543488513
lradius 69.53484117930552
lwrist -22.2038492132485
lhand -44.75679471970519 -70.1503325222017
lfingers 7.125020000000015
lthumb -17.56460225554127 -41.04372012900848
rfemur -25.19117930325229 -2.1624502285452416 16.896467504114316
rtibia 54.198146539223906
rfoot -28.226823192968304 -16.764542338158805
rtoes -17.854860547660664
lfemur -27.44276027328096 2.4823363907123728 -18.264948454835743
ltibia 53.66169183989125
lfoot -31.885875191222667 -3.2530044502880266
ltoes -19.563649130184857
52
root 0 0 0 1.107952779877336 -3.7401895169540778 1.8028301381725464
lowerback 11.995321057859428 0.8620098405296346 -0.07692183367581973
upperback -4.182508038512333 1.0910385581899067 -0.5396229642311308
thorax -11.297355113492307 0.5003905212503114 -0.7746329293723618
lowerneck -5.922070451711688 1.4701146776260643 4.520639937133368
upperneck 18.04082448758045 2.9154533336469903 -8.266555291727785
head 6.615809134725313 1.0617149158619545 -3.194381794139758
rclavicle -1.2350976553979493E-15 3.9921118141385086E-16
rhumerus 19.64136204390504 14.047391660202905 -47.80817552279905
rradius 72.07058795064705
rwrist 27.218737205559822
rhand -34.88338216109937 -57.52903882296563
rfingers 7.125020000000043
rthumb -8.024887371140089 -87.30859507852225
lclavicle 1.071609771590121E-15 -2.715636432902544E-15
lhumerus 20.599494237012166 -12.313591514352556 45.61699278395937
lradius 69.53488342752851
lwrist -22.203872924625518
lhand -44.75681751196915 -70.15032630882365
lfingers 7.125020000000015
lthumb -17.564613989909716 -41.04371081356301
rfemur -25.19115655515733 -2.162444401904486 16.89648537542145
rtibia 54.19812311050936
rfoot -28.226905541365998 -16.764581105188714
rtoes -17.8548604476321
lfemur -27.442828922887976 2.4823214215371436 -18.264936638309848
ltibia 53.661658436713836
lfoot -31.885987505621703 -3.2529261382374957
ltoes -19.5637125364748
53
root 0 0 0 1.1079180226369916 -3.740227641106678 1.8028182529457113
lowerback 11.995319304724434 0.8620074003646128 -0.07690677073112334
upperback -4.1824880430973685 1.091038470125135 -0.5396124055436092
thorax -11.29733151310576 0.5003899980164644 -0.7746300901564047
lowerneck -5.921977584285026 1.47010047663606 4.520664304365674
upperneck 18.040751808751917 2.915438007731172 -8.266611607068246
head 6.61576956020477 1.0617080471286537 -3.1944048392069933
rclavicle -1.2346526962897136E-15 3.9872664297569573E-16
rhumerus 19.64142575420574 14.04746083958959 -47.808142473182365
rradius 72.07060488869415
rwrist 27.2187086505934
rhand -34.88323612626155 -57.528821593315556
rfingers 7.125020000000043
rthumb -8.024746102217735 -87.30837610057156
lclavicle 1.0722573247097525E-15 -2.7162585118634034E-15
lhumerus 20.599513788293446 -12.313678966153509 45.616875795210724
lradius 69.53492477299282
lwrist -22.203899060939328
lhand -44.75674835362003 -70.14992415461728
lfingers 7.125020000000015
lthumb -17.56454731115719 -41.04329938816164
rfemur -25.191158374464315 -2.1624448453570886 16.896488984059946
rtibia 54.198126692637906
rfoot -28.226923463615016 -16.764580428451815
rtoes -17.854862703673387
lfemur -27.44280115912343 2.4823387944654574 -18.264930845360034
ltibia 53.6616413695552
lfoot -31.88600696683801 -3.2529099355495146
ltoes -19.563844104087234
54
root 0 0 0 1.107899462270435 -3.740378890135794 1.8027767256220644
lowerback 11.995072722890816 0.8619720095287986 -0.07692460405375001
upperback -4.182655163256217 1.090984220807824 -0.5395992126281457
thorax -11.297374590673805 0.5003658754474918 -0.7745930609231197
lowerneck -5.922079314154837 1.4702392697238533 4.5205690938710035
upperneck 18.041384766006146 2.915652788150817 -8.266404830065804
head 6.615987637645638 1.0618031043303866 -3.1943095708655322
rclavicle -1.2504583922394946E-15 4.176680662200158E-16
rhumerus 19.642086650176083 14.047416302932607 -47.80786067082184
rradius 72.07168326774688
rwrist 27.219669318042346
rhand -34.88487527795075 -57.532481679231665
rfingers 7.125020000000043
rthumb -8.026279055502757 -87.31209711638486
lclavicle 1.0373803074970012E-15 -2.6922673040960336E-15
lhumerus 20.59975459882077 -12.312244512791306 45.61958629537167
lradius 69.53457312371827
lwrist -22.20312083375254
lhand -44.75893622515186 -70.16117545028234
lfingers 7.125020000000015
lthumb -17.566503955918385 -41.05510243591563
rfemur -25.19004706846711 -2.162472809048694 16.89561594620552
rtibia 54.196571109402306
rfoot -28.225339224859468 -16.76384767510632
rtoes -17.856336336378302
lfemur -27.441174081593708 2.481703449077904 -18.26402672673656
ltibia 53.65905508796164
lfoot -31.88280693148966 -3.25257632968155
ltoes -19.56728982007293
55
root 0 0 0 1.1080201654777118 -3.74015531614688 1.8028394009062727
lowerback 11.99527042324539 0.8620090162338635 -0.07694912748731975
upperback -4.182584631370192 1.0910306017994889 -0.5396403303077592
thorax -11.297410842752177 0.500388031444528 -0.7746334443385423
lowerneck -5.922283595233603 1.4701713358076254 4.520568961588686
upperneck 18.0411103183763 2.915528399172837 -8.266396406265986
head 6.615937700279245 1.061748106070099 -3.194314656924817
rclavicle -1.2283713478032407E-15 3.9667154986388857E-16
rhumerus 19.64158146119003 14.047573772139058 -47.808062651593545
rradius 72.0707052468688
rwrist 27.218725501847942
rhand -34.883292396749184 -57.52890103271656
rfingers 7.125020000000043
rthumb -8.024807157895728 -87.3084246364005
lclavicle 1.0817215495041302E-15 -2.7188883145888104E-15
lhumerus 20.599174744466147 -12.31320882909866 45.61718358354352
lradius 69.5347573101749
lwrist -22.203907524737623
lhand -44.75686351433452 -70.15142623381202
lfingers 7.125020000000015
lthumb -17.564686498335877 -41.04480529942799
rfemur -25.190918469203517 -2.162428472429233 16.89649171750608
rtibia 54.19822714207005
rfoot -28.226721387129153 -16.76442155907264
rtoes -17.855131165440966
lfemur -27.442718934103866 2.48226873899838 -18.26487862874057
ltibia 53.661443657077534
lfoot -31.885720491943015 -3.253059761973837
ltoes -19.564017808632375
56
root 0 0 0 1.1079877343991804 -3.740169886453143 1.8028352977949993
lowerback 11.995298013931182 0.8620099097832155 -0.07693614089283113
upperback -4.182546101812596 1.0910350873381656 -0.5396321701511448
thorax -11.297384122549712 0.5003895451171168 -0.7746335033050056
lowerneck -5.922183307585888 1.4701433305989644 4.520604121809438
upperneck 18.04096771869224 2.915490995933175 -8.26647445772215
head 6.615874582725165 1.061731517346011 -3.194347661421146
rclavicle -1.23386938114364E-15 3.9911468389959695E-16
rhumerus 19.641349785498967 14.047374038046375 -47.80816714417153
rradius 72.07055646535112
rwrist 27.218714462535484
rhand -34.88332137698427 -57.5288893391664
rfingers 7.125020000000043
rthumb -8.024824755791125 -87.30844168723027
lclavicle 1.0735737725764258E-15 -2.7157107323801953E-15
lhumerus 20.59941581411936 -12.31356836016013 45.617039753369156
lradius 69.53484461581992
lwrist -22.20384990446152
lhand -44.75679108282075 -70.15031062655274
lfingers 7.125020000000015
lthumb -17.564598872475635 -41.043698050184474
rfemur -25.191178593628475 -2.162450100938584 16.896467887446644
rtibia 54.19814711610441
rfoot -28.226824252868266 -16.76454209225067
rtoes -17.854860654809364
lfemur -27.442757579242187 2.4823381039828396 -18.26494786824079
ltibia 53.66169159669432
lfoot -31.885875489067683 -3.2530031306541423
ltoes -19.56365963721126
57
root 0 0 0 1.1079515541259894 -3.7401910294672502 1.8028296645418145
lowerback 11.995320757389468 0.8620097250190116 -0.07692130323873708
upperback -4.18250751687501 1.0910385109646499 -0.5396225800839516
thorax -11.297354345472938 0.5003904836165601 -0.7746328028335394
lowerneck -5.922067347513844 1.470114321272126 4.520640664540631
upperneck 18.040822626108007 2.915453014901786 -8.266557015598066
head 6.615807991749469 1.0617147717272832 -3.194382487776867
rclavicle -1.2350857221098344E-15 3.992097720466696E-16
rhumerus 19.64136555029412 14.047395003823048 -47.8081733865172
rradius 72.07058980252106
rwrist 27.218736774306727
rhand -34.88337634710823 -57.529031682633985
rfingers 7.125020000000043
rthumb -8.024881691604781 -87.30858769311783
lclavicle 1.0716279428705796E-15 -2.7156362545044344E-15
lhumerus 20.59949560886639 -12.313595177528377 45.61698922128946
lradius 69.53488557641988
lwrist -22.203873354235643
lhand -44.75681521442378 -70.15031249566636
lfingers 7.125020000000015
lthumb -17.564611853169822 -41.04369689208608
rfemur -25.191156164136117 -2.1624443289865085 16.896485588887014
rtibia 54.19812348281363
rfoot -28.226906169617923 -16.764580952106762
rtoes -17.85486049459186
lfemur -27.442827230271526 2.4823224999350213 -18.264936298320524
ltibia 53.66165826473917
lfoot -31.88598767722434 -3.252925329355609
ltoes -19.56371902955606
58
root 0 0 0 1.1079135262475228 -3.740362297410133 1.802781919676929
lowerback 11.995075136564163 0.861973201094901 -0.07693070570220806
upperback -4.18266192973395 1.0909845636540867 -0.5396035572304807
thorax -11.29738366506912 0.5003662204530033 -0.7745943784079578
lowerneck -5.922115665183188 1.470243985576991 4.520560185769947
upperneck 18.041409145633498 2.9156574105913635 -8.266383936028555
head 6.616001838612838 1.0618051845551957 -3.1943011033406292
rclavicle -1.2505386412257658E-15 4.177061566718087E-16
rhumerus 19.642054920127038 14.047386082333912 -47.80788223471509
rradius 72.071668421853
rwrist 27.219673231809466
rhand -34.88493451056132 -57.53255642268216
rfingers 7.125020000000043
rthumb -8.026336755189432 -87.31217368859848
lclavicle 1.0372602687958397E-15 -2.69223053227717E-15
lhumerus 20.599739781359624 -12.312206987723322 45.619625079413034
lradius 69.53455169346059
lwrist -22.20311479229126
lhand -44.75895915591727 -70.16131805995703
lfingers 7.125020000000015
lthumb -17.566525596818238 -41.055246432502315
rfemur -25.190050098009593 -2.162473214254831 16.895614102543195
rtibia 54.196567211208546
rfoot -28.22533360664558 -16.763849182237294
rtoes -17.856335726950984
lfemur -27.441189888466454 2.481694051860141 -18.26403013349328
ltibia 53.6590582826077
lfoot -31.882804065346757 -3.2525837440743626
ltoes -19.567225937689546
